<mxfile host="app.diagrams.net" modified="2024-01-12T13:27:28.142Z" agent="Mozilla/5.0 (Windows NT 10.0; Win64; x64) AppleWebKit/537.36 (KHTML, like Gecko) Chrome/120.0.0.0 Safari/537.36" etag="Kes5SRC59XVRBmqiZDV-" version="22.1.17" type="device">
  <diagram name="Page-1" id="822b0af5-4adb-64df-f703-e8dfc1f81529">
    <mxGraphModel dx="1764" dy="1868" grid="1" gridSize="10" guides="1" tooltips="1" connect="1" arrows="1" fold="1" page="1" pageScale="1" pageWidth="1100" pageHeight="850" background="none" math="0" shadow="0">
      <root>
        <mxCell id="0" />
        <mxCell id="1" parent="0" />
        <mxCell id="9HIV6sIYCLs4VT5y2kRE-20" style="rounded=0;orthogonalLoop=1;jettySize=auto;html=1;" edge="1" parent="1" source="9HIV6sIYCLs4VT5y2kRE-1" target="9HIV6sIYCLs4VT5y2kRE-7">
          <mxGeometry relative="1" as="geometry" />
        </mxCell>
        <mxCell id="9HIV6sIYCLs4VT5y2kRE-1" value="" style="verticalLabelPosition=bottom;sketch=0;aspect=fixed;html=1;verticalAlign=top;strokeColor=none;align=center;outlineConnect=0;shape=mxgraph.citrix.printer;" vertex="1" parent="1">
          <mxGeometry x="365" y="607.5" width="70" height="70" as="geometry" />
        </mxCell>
        <mxCell id="9HIV6sIYCLs4VT5y2kRE-4" value="" style="verticalLabelPosition=bottom;sketch=0;aspect=fixed;html=1;verticalAlign=top;strokeColor=none;align=center;outlineConnect=0;shape=mxgraph.citrix.router;" vertex="1" parent="1">
          <mxGeometry x="315" y="100" width="55" height="36.5" as="geometry" />
        </mxCell>
        <mxCell id="9HIV6sIYCLs4VT5y2kRE-19" style="rounded=0;orthogonalLoop=1;jettySize=auto;html=1;" edge="1" parent="1" source="9HIV6sIYCLs4VT5y2kRE-6" target="9HIV6sIYCLs4VT5y2kRE-7">
          <mxGeometry relative="1" as="geometry" />
        </mxCell>
        <mxCell id="9HIV6sIYCLs4VT5y2kRE-6" value="" style="verticalLabelPosition=bottom;sketch=0;aspect=fixed;html=1;verticalAlign=top;strokeColor=none;align=center;outlineConnect=0;shape=mxgraph.citrix.laptop_2;" vertex="1" parent="1">
          <mxGeometry x="40" y="588.25" width="116" height="86.5" as="geometry" />
        </mxCell>
        <mxCell id="9HIV6sIYCLs4VT5y2kRE-21" style="edgeStyle=orthogonalEdgeStyle;rounded=0;orthogonalLoop=1;jettySize=auto;html=1;" edge="1" parent="1" source="9HIV6sIYCLs4VT5y2kRE-7" target="9HIV6sIYCLs4VT5y2kRE-4">
          <mxGeometry relative="1" as="geometry" />
        </mxCell>
        <mxCell id="9HIV6sIYCLs4VT5y2kRE-30" value="172.16.1.162" style="edgeLabel;html=1;align=center;verticalAlign=middle;resizable=0;points=[];" vertex="1" connectable="0" parent="9HIV6sIYCLs4VT5y2kRE-21">
          <mxGeometry x="-0.9185" y="3" relative="1" as="geometry">
            <mxPoint as="offset" />
          </mxGeometry>
        </mxCell>
        <mxCell id="9HIV6sIYCLs4VT5y2kRE-7" value="" style="verticalLabelPosition=bottom;sketch=0;aspect=fixed;html=1;verticalAlign=top;strokeColor=none;align=center;outlineConnect=0;shape=mxgraph.citrix.switch;" vertex="1" parent="1">
          <mxGeometry x="296.5" y="390" width="92" height="41.5" as="geometry" />
        </mxCell>
        <mxCell id="9HIV6sIYCLs4VT5y2kRE-18" style="rounded=0;orthogonalLoop=1;jettySize=auto;html=1;" edge="1" parent="1" source="9HIV6sIYCLs4VT5y2kRE-9" target="9HIV6sIYCLs4VT5y2kRE-7">
          <mxGeometry relative="1" as="geometry" />
        </mxCell>
        <mxCell id="9HIV6sIYCLs4VT5y2kRE-9" value="" style="verticalLabelPosition=bottom;sketch=0;aspect=fixed;html=1;verticalAlign=top;strokeColor=none;align=center;outlineConnect=0;shape=mxgraph.citrix.laptop_2;" vertex="1" parent="1">
          <mxGeometry x="39" y="470" width="116" height="86.5" as="geometry" />
        </mxCell>
        <mxCell id="9HIV6sIYCLs4VT5y2kRE-17" style="rounded=0;orthogonalLoop=1;jettySize=auto;html=1;" edge="1" parent="1" source="9HIV6sIYCLs4VT5y2kRE-10" target="9HIV6sIYCLs4VT5y2kRE-7">
          <mxGeometry relative="1" as="geometry" />
        </mxCell>
        <mxCell id="9HIV6sIYCLs4VT5y2kRE-10" value="" style="verticalLabelPosition=bottom;sketch=0;aspect=fixed;html=1;verticalAlign=top;strokeColor=none;align=center;outlineConnect=0;shape=mxgraph.citrix.laptop_2;" vertex="1" parent="1">
          <mxGeometry x="30" y="366.75" width="116" height="86.5" as="geometry" />
        </mxCell>
        <mxCell id="9HIV6sIYCLs4VT5y2kRE-16" style="rounded=0;orthogonalLoop=1;jettySize=auto;html=1;" edge="1" parent="1" source="9HIV6sIYCLs4VT5y2kRE-11" target="9HIV6sIYCLs4VT5y2kRE-7">
          <mxGeometry relative="1" as="geometry" />
        </mxCell>
        <mxCell id="9HIV6sIYCLs4VT5y2kRE-32" value="172.16.1.163" style="edgeLabel;html=1;align=center;verticalAlign=middle;resizable=0;points=[];" vertex="1" connectable="0" parent="9HIV6sIYCLs4VT5y2kRE-16">
          <mxGeometry x="-0.7706" y="4" relative="1" as="geometry">
            <mxPoint x="-4" y="9" as="offset" />
          </mxGeometry>
        </mxCell>
        <mxCell id="9HIV6sIYCLs4VT5y2kRE-11" value="" style="verticalLabelPosition=bottom;sketch=0;aspect=fixed;html=1;verticalAlign=top;strokeColor=none;align=center;outlineConnect=0;shape=mxgraph.citrix.license_server;" vertex="1" parent="1">
          <mxGeometry x="255" y="600" width="65" height="85" as="geometry" />
        </mxCell>
        <mxCell id="9HIV6sIYCLs4VT5y2kRE-25" value="" style="verticalLabelPosition=bottom;sketch=0;aspect=fixed;html=1;verticalAlign=top;strokeColor=none;align=center;outlineConnect=0;shape=mxgraph.citrix.firewall;" vertex="1" parent="1">
          <mxGeometry x="305" y="210" width="75" height="93" as="geometry" />
        </mxCell>
        <mxCell id="9HIV6sIYCLs4VT5y2kRE-26" value="" style="verticalLabelPosition=bottom;sketch=0;aspect=fixed;html=1;verticalAlign=top;strokeColor=none;align=center;outlineConnect=0;shape=mxgraph.citrix.router;" vertex="1" parent="1">
          <mxGeometry x="315" y="-210" width="55" height="36.5" as="geometry" />
        </mxCell>
        <mxCell id="9HIV6sIYCLs4VT5y2kRE-33" value="&lt;span style=&quot;color: rgb(0, 0, 0); font-family: Helvetica; font-size: 11px; font-style: normal; font-variant-ligatures: normal; font-variant-caps: normal; font-weight: 400; letter-spacing: normal; orphans: 2; text-align: center; text-indent: 0px; text-transform: none; widows: 2; word-spacing: 0px; -webkit-text-stroke-width: 0px; background-color: rgb(255, 255, 255); text-decoration-thickness: initial; text-decoration-style: initial; text-decoration-color: initial; float: none; display: inline !important;&quot;&gt;172.16.1.164&lt;br&gt;&lt;br&gt;&lt;/span&gt;" style="text;whiteSpace=wrap;html=1;" vertex="1" parent="1">
          <mxGeometry x="354" y="575" width="70" height="20" as="geometry" />
        </mxCell>
        <mxCell id="9HIV6sIYCLs4VT5y2kRE-35" value="172.16.1.165 -&amp;nbsp;172.16.1.190" style="text;html=1;align=center;verticalAlign=middle;resizable=0;points=[];autosize=1;strokeColor=none;fillColor=none;" vertex="1" parent="1">
          <mxGeometry x="30" y="330" width="170" height="30" as="geometry" />
        </mxCell>
        <mxCell id="9HIV6sIYCLs4VT5y2kRE-37" style="edgeStyle=orthogonalEdgeStyle;rounded=0;orthogonalLoop=1;jettySize=auto;html=1;" edge="1" parent="1" source="9HIV6sIYCLs4VT5y2kRE-36" target="9HIV6sIYCLs4VT5y2kRE-26">
          <mxGeometry relative="1" as="geometry">
            <Array as="points">
              <mxPoint x="342" y="-182" />
            </Array>
          </mxGeometry>
        </mxCell>
        <mxCell id="9HIV6sIYCLs4VT5y2kRE-36" value="172.16.1.161" style="text;html=1;align=center;verticalAlign=middle;resizable=0;points=[];autosize=1;strokeColor=none;fillColor=none;" vertex="1" parent="1">
          <mxGeometry x="296.5" y="70" width="90" height="30" as="geometry" />
        </mxCell>
        <mxCell id="9HIV6sIYCLs4VT5y2kRE-28" value="" style="verticalLabelPosition=bottom;sketch=0;aspect=fixed;html=1;verticalAlign=top;strokeColor=none;align=center;outlineConnect=0;shape=mxgraph.citrix.firewall;" vertex="1" parent="1">
          <mxGeometry x="304" y="-93" width="75" height="93" as="geometry" />
        </mxCell>
        <mxCell id="9HIV6sIYCLs4VT5y2kRE-71" style="edgeStyle=orthogonalEdgeStyle;rounded=0;orthogonalLoop=1;jettySize=auto;html=1;" edge="1" parent="1" source="9HIV6sIYCLs4VT5y2kRE-70" target="9HIV6sIYCLs4VT5y2kRE-7">
          <mxGeometry relative="1" as="geometry" />
        </mxCell>
        <mxCell id="9HIV6sIYCLs4VT5y2kRE-70" value="" style="fontColor=#0066CC;verticalAlign=top;verticalLabelPosition=bottom;labelPosition=center;align=center;html=1;outlineConnect=0;fillColor=#CCCCCC;strokeColor=#6881B3;gradientColor=none;gradientDirection=north;strokeWidth=2;shape=mxgraph.networks.wireless_modem;" vertex="1" parent="1">
          <mxGeometry x="540" y="368.25" width="100" height="85" as="geometry" />
        </mxCell>
        <mxCell id="9HIV6sIYCLs4VT5y2kRE-72" value="172.16.2.161" style="text;html=1;align=center;verticalAlign=middle;resizable=0;points=[];autosize=1;strokeColor=none;fillColor=none;" vertex="1" parent="1">
          <mxGeometry x="548" y="340" width="90" height="30" as="geometry" />
        </mxCell>
        <mxCell id="9HIV6sIYCLs4VT5y2kRE-74" style="edgeStyle=orthogonalEdgeStyle;rounded=0;orthogonalLoop=1;jettySize=auto;html=1;" edge="1" parent="1" source="9HIV6sIYCLs4VT5y2kRE-73" target="9HIV6sIYCLs4VT5y2kRE-70">
          <mxGeometry relative="1" as="geometry" />
        </mxCell>
        <mxCell id="9HIV6sIYCLs4VT5y2kRE-73" value="" style="verticalLabelPosition=bottom;sketch=0;aspect=fixed;html=1;verticalAlign=top;strokeColor=none;align=center;outlineConnect=0;shape=mxgraph.citrix.pda;" vertex="1" parent="1">
          <mxGeometry x="800" y="381" width="30" height="61" as="geometry" />
        </mxCell>
        <mxCell id="9HIV6sIYCLs4VT5y2kRE-75" value="&lt;span style=&quot;color: rgb(0, 0, 0); font-family: Helvetica; font-size: 12px; font-style: normal; font-variant-ligatures: normal; font-variant-caps: normal; font-weight: 400; letter-spacing: normal; orphans: 2; text-align: center; text-indent: 0px; text-transform: none; widows: 2; word-spacing: 0px; -webkit-text-stroke-width: 0px; background-color: rgb(251, 251, 251); text-decoration-thickness: initial; text-decoration-style: initial; text-decoration-color: initial; float: none; display: inline !important;&quot;&gt;172.16.2.162 -&amp;nbsp;&lt;/span&gt;172.16.2.190&lt;br&gt;" style="text;whiteSpace=wrap;html=1;" vertex="1" parent="1">
          <mxGeometry x="740" y="350" width="170" height="40" as="geometry" />
        </mxCell>
        <mxCell id="9HIV6sIYCLs4VT5y2kRE-77" style="rounded=0;orthogonalLoop=1;jettySize=auto;html=1;" edge="1" parent="1" source="9HIV6sIYCLs4VT5y2kRE-76" target="9HIV6sIYCLs4VT5y2kRE-70">
          <mxGeometry relative="1" as="geometry" />
        </mxCell>
        <mxCell id="9HIV6sIYCLs4VT5y2kRE-76" value="" style="verticalLabelPosition=bottom;sketch=0;aspect=fixed;html=1;verticalAlign=top;strokeColor=none;align=center;outlineConnect=0;shape=mxgraph.citrix.pda;" vertex="1" parent="1">
          <mxGeometry x="800" y="470" width="30" height="61" as="geometry" />
        </mxCell>
      </root>
    </mxGraphModel>
  </diagram>
</mxfile>
